<svg width="18" height="14" viewBox="0 0 18 14" fill="none" xmlns="http://www.w3.org/2000/svg">
<path d="M18 1.65738C17.3306 1.93846 16.6174 2.12476 15.8737 2.21522C16.6387 1.77799 17.2226 1.09092 17.4971 0.262769C16.7839 0.669845 15.9964 0.95738 15.1571 1.11784C14.4799 0.427538 13.5146 0 12.4616 0C10.4186 0 8.77388 1.58738 8.77388 3.53338C8.77388 3.81338 8.79863 4.08261 8.85939 4.33891C5.7915 4.19568 3.07688 2.78815 1.25325 0.643999C0.934872 1.17276 0.748122 1.77799 0.748122 2.42953C0.748122 3.65291 1.40625 4.73737 2.38725 5.36522C1.79437 5.35445 1.21275 5.18968 0.719997 4.93014C0.719997 4.94091 0.719997 4.95491 0.719997 4.96891C0.719997 6.68552 1.99912 8.11137 3.6765 8.43983C3.37613 8.51844 3.04875 8.55614 2.709 8.55614C2.47275 8.55614 2.23425 8.54321 2.01037 8.49583C2.4885 9.89478 3.84526 10.9232 5.4585 10.9566C4.203 11.8968 2.60887 12.4632 0.883122 12.4632C0.580497 12.4632 0.29025 12.4503 0 12.4148C1.63462 13.4238 3.57188 14 5.661 14C12.4515 14 16.164 8.61537 16.164 3.94799C16.164 3.79184 16.1584 3.64107 16.1505 3.49138C16.8829 2.99384 17.4982 2.37245 18 1.65738Z" fill="#1B2437"/>
</svg>
